<svg width="32" height="32" viewBox="0 0 32 32" fill="none" xmlns="http://www.w3.org/2000/svg">
<path fill-rule="evenodd" clip-rule="evenodd" d="M16.0116 2C8.26354 2 2 8.41664 2 16.3549C2 22.7004 6.01327 28.0717 11.5807 29.9728C12.2768 30.1157 12.5318 29.6639 12.5318 29.2838C12.5318 28.9511 12.5088 27.8104 12.5088 26.6218C8.61115 27.4776 7.79949 24.9106 7.79949 24.9106C7.17311 23.247 6.245 22.8194 6.245 22.8194C4.96929 21.94 6.33793 21.94 6.33793 21.94C7.75303 22.0351 8.49557 23.4135 8.49557 23.4135C9.74804 25.5998 11.7663 24.9821 12.5782 24.6017C12.6941 23.6748 13.0655 23.0332 13.4599 22.6767C10.3512 22.344 7.08047 21.1082 7.08047 15.5942C7.08047 14.0257 7.63687 12.7423 8.51851 11.7443C8.37941 11.3878 7.89213 9.91405 8.6579 7.94152C8.6579 7.94152 9.84097 7.56119 12.5085 9.41501C13.6506 9.10079 14.8284 8.94094 16.0116 8.9396C17.1947 8.9396 18.4007 9.10614 19.5143 9.41501C22.1822 7.56119 23.3653 7.94152 23.3653 7.94152C24.131 9.91405 23.6435 11.3878 23.5044 11.7443C24.4092 12.7423 24.9427 14.0257 24.9427 15.5942C24.9427 21.1082 21.672 22.32 18.5401 22.6767C19.0506 23.1282 19.4911 23.9837 19.4911 25.3385C19.4911 27.2635 19.4682 28.8084 19.4682 29.2836C19.4682 29.6639 19.7234 30.1157 20.4192 29.9731C25.9867 28.0714 29.9999 22.7004 29.9999 16.3549C30.0229 8.41664 23.7364 2 16.0116 2Z" fill="black"/>
</svg>
