<svg width="64" height="64" viewBox="0 0 64 64" fill="none" xmlns="http://www.w3.org/2000/svg">
<path d="M17 39.7778L11.9444 34H4L14.1111 46.2778L22.4318 42.8472L17 39.7778Z" fill="black"/>
<path d="M22.0556 34L17 39.7778L20.8928 45.0587L30 34H22.0556Z" fill="black"/>
<path d="M20.7989 45.5743C20.8567 45.4176 20.8935 45.2508 20.8935 45.0738C20.8935 44.2765 20.2464 43.6294 19.4491 43.6294H14.634C13.8359 43.6294 13.1896 44.2765 13.1896 45.0738C13.1896 45.2508 13.2257 45.4176 13.2842 45.5743C10.9312 46.8931 9.33794 49.4072 9.33794 52.2961C9.33794 56.5507 12.7866 60 17.0419 60C21.2965 60 24.7458 56.5507 24.7458 52.2961C24.7451 49.4072 23.1526 46.8931 20.7989 45.5743Z" fill="black"/>
<path d="M46.4622 15.1852L39.1336 12.4901L36.3971 3.57927C36.2916 3.23564 35.9713 3 35.6098 3C35.2482 3 34.9279 3.23564 34.8225 3.57927L32.0867 12.4901L24.7573 15.1852C24.4336 15.3046 24.2195 15.6098 24.2195 15.9526C24.2195 16.2946 24.4336 16.6015 24.7573 16.7201L32.0826 19.4144L34.82 28.5968C34.9238 28.9437 35.2449 29.1818 35.6098 29.1818C35.9738 29.1818 36.2958 28.9437 36.3995 28.596L39.1369 19.4135L46.4631 16.7193C46.7851 16.6015 47 16.2955 47 15.9526C47 15.6106 46.7851 15.3046 46.4622 15.1852Z" fill="black"/>
<path d="M29.9916 24.186L28.086 23.4856L27.3448 20.7856C27.2476 20.4289 26.9224 20.1818 26.5509 20.1818C26.1795 20.1818 25.8542 20.4289 25.7562 20.7848L25.0151 23.4848L23.1102 24.1852C22.7866 24.3038 22.5725 24.6106 22.5725 24.9526C22.5725 25.2946 22.7866 25.6015 23.1102 25.7201L25.0052 26.418L25.7521 29.3815C25.8444 29.7447 26.1729 30 26.5509 30C26.9289 30 27.2575 29.7447 27.3498 29.3806L28.0967 26.4172L29.9916 25.7193C30.3153 25.6015 30.5294 25.2946 30.5294 24.9526C30.5294 24.6106 30.3153 24.3038 29.9916 24.186ZM26.4192 6.46173L24.4724 5.74582L23.7509 3.81082C23.6315 3.48927 23.3235 3.27655 22.9785 3.27655C22.6342 3.27655 22.3262 3.48927 22.206 3.81082L21.4854 5.74582L19.5378 6.46173C19.2141 6.58118 19 6.88718 19 7.22918C19 7.57118 19.2141 7.878 19.5378 7.99664L21.4854 8.71255L22.206 10.6475C22.3262 10.9691 22.6342 11.1818 22.9785 11.1818C23.3227 11.1818 23.6307 10.9691 23.7509 10.6475L24.4715 8.71255L26.4192 7.99664C26.7428 7.87718 26.9569 7.57118 26.9569 7.22918C26.9569 6.88718 26.7428 6.58118 26.4192 6.46173Z" fill="black"/>
<path d="M48.8889 41.2222C48.8889 40.5 49.6111 39.0556 49.6111 37.6111C49.6111 36.1667 49.6111 35.4444 48.8889 34.7222C48.1667 34 47.4444 34 47.4444 34C47.4444 34 46.7222 34 46 34.7222C45.2778 35.4444 45.2778 36.1667 45.2778 37.6111C45.2778 39.0556 46 40.5 46 41.2222C46 43.3889 43.1111 44.8333 43.1111 47.7829C43.1111 50.1901 44.5556 54.9444 45.2778 56.3889H49.6111C50.3333 54.9444 51.7778 50.1901 51.7778 47.7829C51.7778 44.8333 48.8889 43.3889 48.8889 41.2222Z" fill="black"/>
<path d="M56.1111 43.3889C56.1111 42.6667 56.8333 41.2222 56.8333 39.7778C56.8333 38.3333 56.8333 37.6111 56.1111 36.8889C55.3889 36.1667 54.6667 36.1667 54.6667 36.1667C54.6667 36.1667 53.9444 36.1667 53.2222 36.8889C52.5 37.6111 52.5 38.3333 52.5 39.7778C52.5 41.2222 53.2222 42.6667 53.2222 43.3889C53.2222 45.5556 50.3333 47 50.3333 49.9496C50.3333 52.3567 51.7778 57.1111 52.5 58.5556H56.8333C57.5556 57.1111 59 52.3567 59 49.9496C59 47 56.1111 45.5556 56.1111 43.3889Z" fill="black"/>
<path d="M42.0726 60C47.0832 60 51.1451 55.9381 51.1451 50.9274C51.1451 45.9168 47.0832 41.8549 42.0726 41.8549C37.0619 41.8549 33 45.9168 33 50.9274C33 55.9381 37.0619 60 42.0726 60Z" fill="black"/>
</svg>
