<svg width="64" height="64" viewBox="0 0 64 64" fill="none" xmlns="http://www.w3.org/2000/svg">
<path d="M38.7918 10.669H31.6567V33C36.4864 33 39.7062 32.2025 40.8275 27.4053C41.4506 24.7399 42.1662 17.5677 42.1662 13.1764C42.1662 11.689 41.0127 10.669 38.7918 10.669ZM24.3253 10.669H31.6567V33C26.827 33 23.6072 32.2025 22.3877 27.4053C21.7132 24.7519 21 17.5677 21 13.1764C21 11.689 22.1036 10.669 24.3253 10.669Z" fill="black"/>
<path d="M44.5021 5.0352L39.0092 6.38862C38.4046 6.53776 37.7494 6.84879 37.0451 7.37676C35.7225 8.3681 35.4529 9.71354 35.2372 10.456L31.9304 21.8345H34.4435L37.557 11.1188C37.7695 10.3883 37.9804 9.7614 38.4658 9.32514C38.8957 8.93914 39.6064 8.71184 40.2721 8.54117L45.0833 7.35842C45.7281 7.19971 46.1241 6.54812 45.9647 5.9093C45.8046 5.26967 45.1469 4.87649 44.5021 5.0352Z" fill="black"/>
<path d="M27.6635 58.6651C24.8809 61.4478 20.3701 61.4478 17.5874 58.6651L6.39194 47.4684C3.60929 44.6857 3.60929 40.1747 6.39194 37.392C9.17458 34.6093 13.6854 34.6093 16.468 37.392L27.6635 48.5886C30.4462 51.3706 30.4462 55.8823 27.6635 58.6651Z" fill="black"/>
<path d="M29.0466 56.6883C30.1667 57.8085 30.3219 59.467 29.3949 60.3949C28.4671 61.3219 26.8086 61.1667 25.6884 60.0465L4.95272 39.3118C3.83333 38.1924 3.67817 36.533 4.60519 35.6052C5.53221 34.6782 7.1923 34.8333 8.31169 35.9528L29.0466 56.6883Z" fill="black"/>
<path d="M58.4259 40.5294H35.5741C34.1523 40.5294 33 41.6749 33 43.0882C33 44.5016 34.1523 45.6471 35.5741 45.6471C35.7302 45.6471 35.8804 45.6274 36.0288 45.6019L36.0151 45.6471L36.5617 57.5916C36.6466 59.4664 38.2614 61 40.1491 61H53.8775C55.7652 61 57.38 59.4664 57.4658 57.5916L58.0115 45.6471L57.9986 45.6044C58.1385 45.6274 58.2792 45.6471 58.4259 45.6471C59.8477 45.6471 61 44.5016 61 43.0882C61 41.6749 59.8468 40.5294 58.4259 40.5294Z" fill="black"/>
<path d="M58.1067 40.5891C58.1436 40.4322 58.1677 40.271 58.1677 40.1029C58.1677 39.5281 57.936 39.0078 57.5636 38.6248C57.9257 38.3979 58.1677 38.0004 58.1677 37.5441C58.1677 36.837 57.5911 36.2647 56.8806 36.2647C56.7116 36.2647 56.5503 36.2988 56.4018 36.3585C56.2826 35.921 55.9394 35.5798 55.4992 35.4612C55.5593 35.3137 55.5936 35.1542 55.5936 34.9853C55.5936 34.2782 55.017 33.7059 54.3065 33.7059C54.1426 33.7059 53.9873 33.7391 53.8432 33.7946C53.6793 32.7787 52.8007 32 51.7324 32C50.5475 32 49.5874 32.9544 49.5874 34.1324C49.5874 34.2919 49.608 34.4462 49.6414 34.5964C49.0923 34.6927 48.6204 34.9964 48.3003 35.4229C47.9091 34.9017 47.2896 34.5588 46.5843 34.5588C45.3994 34.5588 44.4392 35.5133 44.4392 36.6912L44.4401 36.7014C44.1792 36.5052 43.8764 36.3645 43.5417 36.3039C43.3581 35.3111 42.4872 34.5588 41.4361 34.5588C40.3825 34.5588 39.5099 35.3154 39.3297 36.3116C39.1761 36.2877 39.0225 36.2647 38.862 36.2647C37.2035 36.2647 35.8589 37.6013 35.8589 39.25C35.8589 39.7149 35.9748 40.149 36.1653 40.5414C35.5132 40.6036 35.0009 41.1435 35.0009 41.8088C35.0009 42.5159 35.5775 43.0882 36.288 43.0882H57.7386C58.4491 43.0882 59.0257 42.5159 59.0257 41.8088C59.0257 41.2305 58.637 40.7469 58.1067 40.5891Z" fill="black"/>
</svg>
