<svg width="64" height="64" viewBox="0 0 64 64" fill="none" xmlns="http://www.w3.org/2000/svg">
<path d="M27 13.8305C27 19.2597 22.5228 23.661 17 23.661C11.4772 23.661 7 19.2597 7 13.8305C7 8.40127 11.4772 4 17 4C22.5228 4 27 8.40127 27 13.8305Z" fill="black"/>
<path d="M31 42.3898C31 49.9908 24.732 56.1525 17 56.1525C9.26801 56.1525 3 49.9908 3 42.3898C3 34.7889 9.26801 28.6271 17 28.6271C24.732 28.6271 31 34.7889 31 42.3898Z" fill="black"/>
<path d="M3 42.4068H31V54.1356C31 58.479 27.4183 62 23 62H11C6.58172 62 3 58.479 3 54.1356V42.4068Z" fill="black"/>
<path d="M35.9799 21.6388C37.1412 21.125 38.8003 21.8138 39.9742 23.4788C40.7454 24.572 40.9724 26.1285 41.9849 26.2908C42.3717 26.3522 43.0226 26.0276 43.0226 25.116V11.7841C43.0226 11.7841 43.0226 10.1023 44.7044 10.1023C46.3862 10.1023 46.3862 11.7841 46.3862 11.7841V21.5665C46.3862 21.5421 47.2272 21.5127 47.2272 21.4976V9.68184C47.2272 9.68184 47.2272 8 48.909 8C50.5908 8 50.5908 9.68184 50.5908 9.68184V21.4993C50.5908 21.5135 51.4317 21.5337 51.4317 21.5573V11.5739C51.4317 11.5739 51.4317 9.89206 53.1136 9.89206C54.7954 9.89206 54.7954 11.5739 54.7954 11.5739V22.2014C54.7954 22.3006 55.6363 22.4125 55.6363 22.5361V15.358C55.6363 15.358 55.6363 13.6762 57.3182 13.6762C59 13.6762 59 15.358 59 15.358V28.182C59 33.7548 54.4818 38.273 48.909 38.273C44.8936 38.273 42.1312 36.0883 40.5873 33.8229C39.278 31.9014 38.8987 29.9067 38.818 29.3038C38.818 29.3038 38.7145 28.0601 37.8459 26.8946C36.6106 25.2388 35.7436 24.2406 35.218 23.6436C34.9514 23.3417 34.6924 22.2081 35.9799 21.6388Z" fill="black"/>
<path d="M58.28 46.1343C58.4985 44.4136 50.9561 43.1143 50.8184 44.7536C50.6806 46.3929 50.6507 47.5536 50.1262 49.5522C49.278 52.7832 45.6109 54.4039 41.9663 54.4039H40.8208C40.3777 54.4039 40.0018 54.6977 39.8633 55.1018C39.1685 55.1018 38.7464 55.5018 38.7464 55.9721C38.3861 55.9721 37.584 56.3225 37.584 57.1618C37.584 57.1618 35.8875 57.0887 35.8875 58.8859L35.8889 58.8963C34.4333 59.3142 34.8507 61.7176 36.52 61.9438C38.1038 62.1583 38.1676 61.6894 39.5247 61.6894C40.8602 61.6894 41.0549 61.9894 42.6734 61.9894C46.0072 61.9894 45.9238 61.3218 49.0839 60.83C52.5704 60.2873 53.4309 61.6052 55.4666 61.6052C57.5024 61.6052 59 59.9921 59 57.8728C59 54.4246 57.6028 54.4039 57.6028 51.6453C57.6028 48.8867 58.0615 47.8542 58.28 46.1343Z" fill="black"/>
</svg>
