<svg width="64" height="64" viewBox="0 0 64 64" fill="none" xmlns="http://www.w3.org/2000/svg">
<path d="M37.2 24.7273C35.7087 24.7273 34.5 23.5064 34.5 22V18.3636C34.5 16.8573 35.7087 15.6364 37.2 15.6364C37.7427 15.6309 42.6 14.7273 42.6 11.0909C42.6 9.27273 40.8 7.45455 38.1 7.45455C35.9031 7.45455 34.5 9.27273 34.5 10.1818C34.5 11.6882 33.2913 12.9091 31.8 12.9091C30.3087 12.9091 29.1 11.6882 29.1 10.1818C29.1 5.74727 33.222 2 38.1 2C45.3 2 48 7.43818 48 12C48 15.7682 45.9507 18.6482 42.2283 20.1091C41.4183 20.4282 40.6173 20.6427 39.9 20.7882V22C39.9 23.5064 38.6913 24.7273 37.2 24.7273Z" fill="black"/>
<path d="M37.2 32C38.6912 32 39.9 30.779 39.9 29.2727C39.9 27.7665 38.6912 26.5455 37.2 26.5455C35.7088 26.5455 34.5 27.7665 34.5 29.2727C34.5 30.779 35.7088 32 37.2 32Z" fill="black"/>
<path d="M23.7 32C25.1912 32 26.4 30.779 26.4 29.2727C26.4 27.7665 25.1912 26.5455 23.7 26.5455C22.2088 26.5455 21 27.7665 21 29.2727C21 30.779 22.2088 32 23.7 32Z" fill="black"/>
<path d="M26.4 22C26.4 23.5064 25.1913 24.7273 23.7 24.7273C22.2087 24.7273 21 23.5064 21 22V4.72727C21 3.22091 22.2087 2 23.7 2C25.1913 2 26.4 3.22091 26.4 4.72727V22Z" fill="black"/>
<path d="M8 57L27 37M8 37L27 57" stroke="black" stroke-width="5" stroke-linecap="round"/>
<path d="M55 37L36 57" stroke="black" stroke-width="5" stroke-linecap="round"/>
<circle cx="4" cy="4" r="4" transform="matrix(-1 0 0 1 58 52)" fill="black"/>
<circle cx="4" cy="4" r="4" transform="matrix(-1 0 0 1 42 34)" fill="black"/>
</svg>
