<svg width="64" height="64" viewBox="0 0 64 64" fill="none" xmlns="http://www.w3.org/2000/svg">
<path d="M13.8 57C12.2544 57 11 55.72 11 54.1429V9.85714C11 8.28 12.2544 7 13.8 7C15.3456 7 16.6 8.28 16.6 9.85714V54.1429C16.6 55.72 15.3456 57 13.8 57Z" fill="black"/>
<path d="M52.181 9.98571C49.7282 8.84429 47.12 8.29 44.2038 8.29C40.6786 8.29 37.1758 9.10429 33.7906 9.89286C30.4054 10.68 27.2078 11.4243 23.9976 11.4243C21.4916 11.4243 19.2628 10.9543 17.1824 9.98714C16.7498 9.78429 16.2444 9.82286 15.844 10.0843C15.4422 10.3471 15.2 10.8 15.2 11.2857V38.4286C15.2 38.9886 15.5206 39.4957 16.019 39.7286C18.4718 40.87 21.0814 41.4243 23.9962 41.4243C27.5214 41.4243 31.0242 40.61 34.4094 39.8214C37.7946 39.0343 40.9922 38.2914 44.2024 38.2914C46.7084 38.2914 48.9386 38.7614 51.0176 39.73C51.453 39.93 51.9556 39.8943 52.356 39.6314C52.7578 39.3671 53 38.9143 53 38.4286V11.2857C53 10.7257 52.6794 10.2171 52.181 9.98571Z" fill="black"/>
</svg>
