<svg width="64" height="64" viewBox="0 0 64 64" fill="none" xmlns="http://www.w3.org/2000/svg">
<path d="M0 17.5484C0.991871 25.6956 7.77715 32 16 32C24.2229 32 31.0081 25.6956 32 17.5484H26.948C26.0015 22.9987 21.3731 27 16 27C10.6269 27 5.99853 22.9987 5.05196 17.5484H0Z" fill="black"/>
<path d="M14 4.5C14 6.98528 11.9853 9 9.5 9C7.01472 9 5 6.98528 5 4.5C5 2.01472 7.01472 0 9.5 0C11.9853 0 14 2.01472 14 4.5Z" fill="black"/>
<path d="M27 4.5C27 6.98528 24.9853 9 22.5 9C20.0147 9 18 6.98528 18 4.5C18 2.01472 20.0147 0 22.5 0C24.9853 0 27 2.01472 27 4.5Z" fill="black"/>
<path d="M64 62C63.0081 53.8528 56.2229 47.5484 48 47.5484C39.7771 47.5484 32.9919 53.8528 32 62H37.052C37.9985 56.5497 42.6269 52.5484 48 52.5484C53.3732 52.5484 58.0015 56.5497 58.948 62H64Z" fill="black"/>
<path d="M46 36.5C46 38.9853 43.9853 41 41.5 41C39.0147 41 37 38.9853 37 36.5C37 34.0147 39.0147 32 41.5 32C43.9853 32 46 34.0147 46 36.5Z" fill="black"/>
<path d="M59 36.5C59 38.9853 56.9853 41 54.5 41C52.0147 41 50 38.9853 50 36.5C50 34.0147 52.0147 32 54.5 32C56.9853 32 59 34.0147 59 36.5Z" fill="black"/>
<path d="M48 28L46.26 26.2997C44.24 24.3161 42.57 22.6049 41.25 21.1662C39.93 19.7275 38.88 18.436 38.1 17.2916C37.32 16.1471 36.775 15.0954 36.465 14.1362C36.155 13.1771 36 12.1962 36 11.1935C36 9.14441 36.63 7.43324 37.89 6.05995C39.15 4.68665 40.72 4 42.6 4C43.64 4 44.63 4.23978 45.57 4.71935C46.51 5.19891 47.32 5.87466 48 6.74659C48.68 5.87466 49.49 5.19891 50.43 4.71935C51.37 4.23978 52.36 4 53.4 4C55.28 4 56.85 4.68665 58.11 6.05995C59.37 7.43324 60 9.14441 60 11.1935C60 12.1962 59.845 13.1771 59.535 14.1362C59.225 15.0954 58.68 16.1471 57.9 17.2916C57.12 18.436 56.07 19.7275 54.75 21.1662C53.43 22.6049 51.76 24.3161 49.74 26.2997L48 28Z" fill="black"/>
<path d="M3 38C3 36.8954 3.89543 36 5 36H25C26.1046 36 27 36.8954 27 38V58.7539C27 59.2047 26.4503 59.4253 26.1387 59.0995L21.3298 54.0721C20.9525 53.6776 20.4304 53.4545 19.8846 53.4545H5C3.89543 53.4545 3 52.5591 3 51.4545V38Z" fill="black"/>
</svg>
