<svg width="64" height="64" viewBox="0 0 64 64" fill="none" xmlns="http://www.w3.org/2000/svg">
<path d="M32 5C17.0885 5 5 17.0885 5 32C5 46.9115 17.0885 59 32 59C46.9115 59 59 46.9115 59 32C59 17.0885 46.9115 5 32 5ZM8.075 33.5H14.0495C14.1875 37.259 14.8325 40.8065 15.893 44H11.237C9.4265 40.8755 8.312 37.3115 8.075 33.5ZM33.5 17V8.1215C37.6205 8.7755 41.243 12.104 43.6985 17H33.5ZM44.9765 20C46.1075 23.1245 46.805 26.69 46.952 30.5H33.5V20H44.9765ZM30.5 8.1215V17H20.3015C22.7555 12.104 26.3795 8.7755 30.5 8.1215ZM30.5 20V30.5H17.048C17.195 26.69 17.8925 23.1245 19.0235 20H30.5ZM14.051 30.5H8.075C8.312 26.69 9.4265 23.1245 11.2355 20H15.8915C14.834 23.1935 14.189 26.7425 14.051 30.5ZM17.048 33.5H30.5V44H19.0235C17.8925 40.8755 17.195 37.3115 17.048 33.5ZM30.5 47V55.8785C26.3795 55.223 22.7555 51.896 20.3015 47H30.5ZM33.5 55.8785V47H43.7C41.2445 51.896 37.6205 55.223 33.5 55.8785ZM33.5 44V33.5H46.9535C46.805 37.3115 46.109 40.8755 44.978 44H33.5ZM49.9505 33.5H55.9235C55.688 37.3115 54.5735 40.8755 52.763 44H48.107C49.166 40.8065 49.811 37.259 49.9505 33.5ZM49.9505 30.5C49.811 26.7425 49.166 23.1935 48.107 20H52.763C54.5735 23.1245 55.688 26.69 55.9235 30.5H49.9505ZM50.7185 17H46.964C45.8885 14.594 44.555 12.4775 43.0355 10.7015C46.019 12.2495 48.6335 14.4005 50.7185 17ZM20.9645 10.7015C19.4435 12.4775 18.11 14.594 17.0345 17H13.2815C15.3665 14.4005 17.981 12.251 20.9645 10.7015ZM13.2815 47H17.036C18.11 49.406 19.4435 51.5225 20.9645 53.297C17.981 51.749 15.3665 49.5995 13.2815 47ZM43.0355 53.297C44.5565 51.521 45.8885 49.406 46.964 47H50.7185C48.6335 49.5995 46.019 51.749 43.0355 53.297Z" fill="black"/>
</svg>
