<svg width="64" height="64" viewBox="0 0 64 64" fill="none" xmlns="http://www.w3.org/2000/svg">
<path d="M20.8408 59.5C20.8408 61.3408 19.3449 62 17.4998 62C15.6547 62 14.1588 61.3408 14.1588 59.5L14.994 52C14.994 50.1592 15.6547 50.3333 17.4998 50.3333C19.3449 50.3333 20.0056 50.1592 20.0056 52L20.8408 59.5Z" fill="black"/>
<path d="M28.6973 54.7475C22.8814 49.7767 20.5259 42.6592 17.4998 42.6592C14.4736 42.6592 12.1182 49.7767 6.30316 54.7475C3.85919 56.8367 5.02354 58.045 8.37376 57.8033C11.3606 57.5883 14.1529 56.9125 17.4998 56.9125C20.8467 56.9125 23.6406 57.5892 26.6258 57.8033C29.9769 58.045 31.1404 56.8367 28.6973 54.7475Z" fill="black"/>
<path d="M26.8087 49.4658C22.3393 45.6458 19.8276 40.1758 17.4998 40.1758C15.1736 40.1758 12.6611 45.6458 8.19167 49.4658C4.64016 52.5008 12.8457 53.1817 17.4998 49.4658C22.1513 53.1817 30.3594 52.5008 26.8087 49.4658Z" fill="black"/>
<path d="M24.7665 44.2717C21.2777 41.2892 19.3173 37.0192 17.4998 37.0192C15.6839 37.0192 13.7219 41.29 10.233 44.2717C7.46082 46.6417 13.8664 47.1725 17.4998 44.2717C21.1323 47.1725 27.5396 46.6408 24.7665 44.2717Z" fill="black"/>
<path d="M23.3641 40.1992C20.5485 37.7925 18.9665 34.3458 17.4998 34.3458C16.0339 34.3458 14.4511 37.7925 11.6354 40.1992C9.39779 42.1117 14.568 42.54 17.4998 40.1992C20.4315 42.5408 25.6026 42.1117 23.3641 40.1992Z" fill="black"/>
<path d="M21.9626 36.4542C19.8201 34.6233 18.6157 32 17.4998 32C16.3847 32 15.1794 34.6233 13.037 36.4542C11.3347 37.91 15.268 38.2358 17.4998 36.4542C19.7308 38.2358 23.6657 37.9092 21.9626 36.4542Z" fill="black"/>
<path d="M29.3887 9.32484C29.7862 11.2875 29.2365 12.8991 26.9446 13.2383C24.651 13.5783 21.3383 16.5274 19.541 11.7212C18.4992 8.93755 17.87 3.19646 19.1552 3.00661C20.4413 2.81592 28.9921 7.36221 29.3887 9.32484Z" fill="black"/>
<path d="M34.8394 9.32484C34.4561 11.2875 34.9866 12.8991 37.1973 13.2383C39.4097 13.5783 42.6061 16.5274 44.3399 11.7212C45.3448 8.9367 45.9523 3.19646 44.7122 3.00577C43.4713 2.81592 35.2218 7.36221 34.8394 9.32484Z" fill="black"/>
<path d="M44.0227 24.0193C44.0227 23.6362 43.8654 23.0987 43.6822 22.5958C44.1717 22.6195 44.9532 22.757 46 23.2852C45.9933 22.8329 45.9013 22.4549 45.7716 22.1098C45.8059 22.1267 45.8343 22.1385 45.8686 22.1562C44.9449 19.3633 43.0998 17.5011 43.0998 17.5011H44.9457C42.9952 13.5665 40.7912 10.7382 38.1889 9.43538C37.0258 8.69876 35.1029 8.3064 32.0195 8.30555H32.017C28.9243 8.30555 26.9998 8.70044 25.8376 9.44128C23.2403 10.7466 21.0396 13.5724 19.0925 17.5011H20.9392C20.9392 17.5011 19.0925 19.3625 18.1687 22.1562L18.239 22.1233C18.0708 22.4541 17.9821 22.838 18.003 23.2852C19.0598 22.7519 19.8581 22.6169 20.3568 22.595C20.1987 23.0278 20.0698 23.4759 20.0338 23.8396C19.9309 24.1526 19.874 24.5247 19.9209 24.9728C22.6043 23.7425 23.8595 23.918 25.3238 24.6563C26.3388 27.7134 28.8432 30 32.0187 30C35.1925 30 37.6634 27.6425 38.6776 24.5863C39.8975 23.5316 41.7802 23.848 44.0462 24.9373C44.1014 24.5888 44.0763 24.2851 44.0161 24.0151L44.0227 24.0193Z" fill="black"/>
<path d="M56.4115 55.0811C54.3292 54.3616 49.7984 54.7343 48.3088 56.1571V46.6408C48.3088 46.1938 47.9444 45.8325 47.4935 45.8325C47.0426 45.8325 46.6782 46.1938 46.6782 46.6408V56.1571C45.1886 54.7343 40.6578 54.3616 38.5755 55.0811C37.9713 55.2905 42.8674 62.1536 46.3268 58.7245C46.4637 58.5886 46.5763 58.4577 46.6782 58.3284V61.1916C46.6782 61.6387 47.0426 62 47.4935 62C47.9444 62 48.3088 61.6387 48.3088 61.1916V58.3284C48.4107 58.4577 48.5232 58.5886 48.6602 58.7245C52.1196 62.1536 57.0156 55.2905 56.4115 55.0811Z" fill="black"/>
<path d="M43.0598 53.6333C42.5551 53.4183 42.1572 52.9567 41.9363 52.4102L40.9041 49.7377L38.2477 48.6117C37.1585 48.1477 36.7182 47.058 37.1846 45.9772L38.295 43.4057L37.1829 40.7631C36.7418 39.6718 37.3052 38.4447 38.4059 38.0082L41.0736 36.9727L42.255 34.2371C42.7222 33.1571 43.8213 32.7206 44.9114 33.183L47.5677 34.3115L50.2313 33.2072C50.7817 32.9882 51.3818 32.9841 51.8864 33.1983C52.3911 33.4126 52.7947 33.8604 53.0157 34.4061L54.0544 37.0656L56.7523 38.2111C57.8416 38.6735 58.281 39.764 57.8163 40.8448L56.6333 43.5803L57.7462 46.2213C58.1873 47.3126 57.6239 48.5381 56.5232 48.9754L53.8563 50.011L52.745 52.584C52.2786 53.664 51.1779 54.1014 50.0887 53.639L47.3916 52.4935L44.7279 53.5961C44.1768 53.8152 43.5645 53.8475 43.0598 53.6333Z" fill="black"/>
</svg>
